<svg xmlns="http://www.w3.org/2000/svg" viewBox="0 0 300.72 297.73"><defs><style>.cls-1{fill:#02968a;}.cls-2{fill:#fff;}.cls-3{fill:none;stroke:#fff;stroke-miterlimit:10;stroke-width:5px;}</style></defs><g id="Layer_2" data-name="Layer 2"><g id="Layer_1-2" data-name="Layer 1"><path class="cls-1" d="M30.08.57l0,0h0A6.44,6.44,0,0,1,29.56,0c0,.14,0,.29,0,.43Z"/><path class="cls-2" d="M0,271.41V240.52H3.49v30.89Zm1.59-13.76v-3.4H16.94v3.4Zm0-13.77v-3.36H19.11v3.36Z"/><path class="cls-2" d="M30.84,271.85a8.63,8.63,0,0,1-4.41-1.08,7.09,7.09,0,0,1-2.84-3.13,11.42,11.42,0,0,1-1-5.05V248.25H26v13.5a7.8,7.8,0,0,0,1.61,5.32,5.7,5.7,0,0,0,4.52,1.83,6.39,6.39,0,0,0,2.58-.51A7,7,0,0,0,36.71,267a6.42,6.42,0,0,0,1.39-1.87,4.71,4.71,0,0,0,.51-2.1V248.25H42v23.16H38.65l0-5,.66-.35A8,8,0,0,1,37.49,269a9.18,9.18,0,0,1-3,2.12A8.71,8.71,0,0,1,30.84,271.85Z"/><path class="cls-2" d="M44.66,251.51v-3.26H59.13v3.26ZM50,271.41V242.33h3.35v29.08Z"/><path class="cls-2" d="M69.85,271.85a8.61,8.61,0,0,1-4.41-1.08,7.11,7.11,0,0,1-2.85-3.13,11.57,11.57,0,0,1-1-5.05V248.25H65v13.5a7.85,7.85,0,0,0,1.61,5.32,5.73,5.73,0,0,0,4.53,1.83,6.39,6.39,0,0,0,2.58-.51,7,7,0,0,0,2-1.35,6.42,6.42,0,0,0,1.39-1.87,4.71,4.71,0,0,0,.51-2.1V248.25H81v23.16H77.66l0-5,.66-.35A7.84,7.84,0,0,1,76.49,269a9.14,9.14,0,0,1-2.95,2.12A8.75,8.75,0,0,1,69.85,271.85Z"/><path class="cls-2" d="M85.69,271.41V248.25h3.36l0,6.7-.4-1.14a8.45,8.45,0,0,1,1.53-3,8.11,8.11,0,0,1,2.62-2.18,7.09,7.09,0,0,1,3.4-.82,9,9,0,0,1,1.41.11,5,5,0,0,1,1.1.29l-.88,3.66a13.11,13.11,0,0,0-1.26-.38,5.27,5.27,0,0,0-1.21-.15,5.86,5.86,0,0,0-2.54.55,6.28,6.28,0,0,0-2,1.48,6.94,6.94,0,0,0-1.31,2.1,6.6,6.6,0,0,0-.46,2.4v13.5Z"/><path class="cls-2" d="M110.1,271.85a12.26,12.26,0,0,1-6.18-1.52,10.94,10.94,0,0,1-4.22-4.21A12.31,12.31,0,0,1,98.18,260a13.67,13.67,0,0,1,.86-4.92,11.76,11.76,0,0,1,2.38-3.83,10.52,10.52,0,0,1,3.64-2.5,12,12,0,0,1,4.64-.88,10.65,10.65,0,0,1,4.12.79,9.74,9.74,0,0,1,3.34,2.28,10,10,0,0,1,2.16,3.48,11.39,11.39,0,0,1,.66,4.44l0,1.67H100.61l-.71-2.73h17.26l-.62.75,0-1.11a6.45,6.45,0,0,0-1.06-3.35,7,7,0,0,0-2.49-2.29,6.81,6.81,0,0,0-3.33-.84,8.58,8.58,0,0,0-4.41,1.08,7,7,0,0,0-2.81,3,11.2,11.2,0,0,0-1,4.7,10,10,0,0,0,1.15,4.75,7.81,7.81,0,0,0,3.11,3.13,9.36,9.36,0,0,0,4.65,1.13,9.67,9.67,0,0,0,3.53-.64,11,11,0,0,0,3.31-2.15l1.68,2.39a10.83,10.83,0,0,1-2.49,1.83,14.43,14.43,0,0,1-3.07,1.21A12.24,12.24,0,0,1,110.1,271.85Z"/><path class="cls-2" d="M148.35,271.85a16.28,16.28,0,0,1-6.24-1.17,14.43,14.43,0,0,1-4.94-3.3,14.74,14.74,0,0,1-3.22-5.06,17.6,17.6,0,0,1-1.13-6.4,16.37,16.37,0,0,1,1.19-6.28,15.31,15.31,0,0,1,8.41-8.41,16.82,16.82,0,0,1,10.63-.6A14,14,0,0,1,157,242.4a13.85,13.85,0,0,1,3.07,2.71l-4.15,4.64a11.39,11.39,0,0,0-3.35-2.56,8.77,8.77,0,0,0-3.89-.89,9.13,9.13,0,0,0-3.55.69,8.42,8.42,0,0,0-2.89,2,9.41,9.41,0,0,0-1.94,3.05,10.44,10.44,0,0,0-.71,3.92,11,11,0,0,0,.69,4,8.39,8.39,0,0,0,2,3,8.6,8.6,0,0,0,3.07,1.94,10.85,10.85,0,0,0,4,.69,9.07,9.07,0,0,0,2.71-.4,10.38,10.38,0,0,0,2.45-1.1,10.2,10.2,0,0,0,2-1.64l3.22,5.17a9.88,9.88,0,0,1-2.82,2.16,17,17,0,0,1-4,1.52A18.22,18.22,0,0,1,148.35,271.85Z"/><path class="cls-2" d="M173.55,271.85a12.77,12.77,0,0,1-6.33-1.56A11.65,11.65,0,0,1,162.8,266a12,12,0,0,1-1.61-6.22,12.26,12.26,0,0,1,1.61-6.31,11.7,11.7,0,0,1,4.42-4.3,13.59,13.59,0,0,1,12.68,0,11.62,11.62,0,0,1,4.39,4.3,12.17,12.17,0,0,1,1.61,6.31,11.94,11.94,0,0,1-1.61,6.22,11.57,11.57,0,0,1-4.39,4.31A12.74,12.74,0,0,1,173.55,271.85Zm0-5.42a5.55,5.55,0,0,0,3.11-.89,6.12,6.12,0,0,0,2.12-2.38,7,7,0,0,0,.73-3.4,7.3,7.3,0,0,0-.73-3.5,6,6,0,0,0-2.12-2.39,5.7,5.7,0,0,0-3.11-.86,5.63,5.63,0,0,0-3.09.88,6.32,6.32,0,0,0-2.16,2.39,7,7,0,0,0-.75,3.48,6.79,6.79,0,0,0,.75,3.4,6.21,6.21,0,0,0,2.16,2.38A5.56,5.56,0,0,0,173.55,266.43Z"/><path class="cls-2" d="M189,271.41V248.07h6l.18,4.77-1.24.52a6.78,6.78,0,0,1,1.72-2.89,10.14,10.14,0,0,1,3-2.09,8.85,8.85,0,0,1,3.66-.8,8.63,8.63,0,0,1,4.44,1.06,6.63,6.63,0,0,1,2.69,3.2,13.78,13.78,0,0,1,.9,5.32v14.25h-6.26V257.6a7,7,0,0,0-.44-2.65,3,3,0,0,0-1.33-1.54,4.38,4.38,0,0,0-2.25-.44,5.53,5.53,0,0,0-1.94.33,4.93,4.93,0,0,0-1.57.95,4.14,4.14,0,0,0-1,1.41,4.23,4.23,0,0,0-.36,1.76v14H189Z"/><path class="cls-2" d="M214.9,271.41V248.07h6l.18,4.77-1.24.52a6.78,6.78,0,0,1,1.72-2.89,10.14,10.14,0,0,1,3.05-2.09,8.78,8.78,0,0,1,3.66-.8,8.66,8.66,0,0,1,4.44,1.06,6.63,6.63,0,0,1,2.69,3.2,13.78,13.78,0,0,1,.9,5.32v14.25h-6.26V257.6a6.82,6.82,0,0,0-.45-2.65,3,3,0,0,0-1.32-1.54,4.38,4.38,0,0,0-2.25-.44,5.49,5.49,0,0,0-1.94.33,4.93,4.93,0,0,0-1.57.95,4.17,4.17,0,0,0-1,1.41,4.39,4.39,0,0,0-.35,1.76v14H214.9Z"/><path class="cls-2" d="M251.83,271.85a13.71,13.71,0,0,1-6.64-1.54,11.05,11.05,0,0,1-4.41-4.24,11.9,11.9,0,0,1-1.57-6.13,13.73,13.73,0,0,1,.88-5,11.44,11.44,0,0,1,2.47-3.9,11.09,11.09,0,0,1,3.78-2.54,12.41,12.41,0,0,1,4.78-.91,11.05,11.05,0,0,1,4.39.86,10.55,10.55,0,0,1,3.49,2.43,10.79,10.79,0,0,1,2.27,3.69,12.41,12.41,0,0,1,.75,4.63l0,1.94H243.23l-1-3.88h14.61l-.75.79v-.92a4,4,0,0,0-.78-2.17,4.89,4.89,0,0,0-1.74-1.47,5,5,0,0,0-2.34-.56,6.56,6.56,0,0,0-3.33.78,4.92,4.92,0,0,0-2,2.2,8.18,8.18,0,0,0-.68,3.55,7.31,7.31,0,0,0,.88,3.65,5.9,5.9,0,0,0,2.54,2.4,8.5,8.5,0,0,0,3.9.84,7.82,7.82,0,0,0,2.83-.49,10.75,10.75,0,0,0,2.78-1.67l2.95,4.19a13.38,13.38,0,0,1-2.78,1.9,15.11,15.11,0,0,1-3.18,1.19A13.9,13.9,0,0,1,251.83,271.85Z"/><path class="cls-2" d="M275.22,271.85a11.49,11.49,0,0,1-6-1.58,11.32,11.32,0,0,1-4.17-4.35,12.48,12.48,0,0,1-1.53-6.16,12.65,12.65,0,0,1,1.53-6.24,11.31,11.31,0,0,1,10.17-5.94,13.69,13.69,0,0,1,5.71,1.17,9.86,9.86,0,0,1,4,3.2l-3.4,4.15a7.74,7.74,0,0,0-1.54-1.54,7.91,7.91,0,0,0-2-1.11,6.54,6.54,0,0,0-2.23-.39,6,6,0,0,0-3.22.86,5.91,5.91,0,0,0-2.21,2.38,7.25,7.25,0,0,0-.79,3.42,6.75,6.75,0,0,0,.84,3.35,6.54,6.54,0,0,0,2.25,2.39,5.84,5.84,0,0,0,3.13.88A7.15,7.15,0,0,0,278,266a6.07,6.07,0,0,0,1.92-1,11.48,11.48,0,0,0,1.68-1.54l3.4,4.15a10.19,10.19,0,0,1-4.13,3.06A13.84,13.84,0,0,1,275.22,271.85Z"/><path class="cls-2" d="M285.28,253.67v-5.6h15.44v5.6Zm4.37,17.74V242.16h6.26v29.25Z"/><path class="cls-2" d="M45.47,297.53l-4.34-13.87h2.65l2.5,8.22a11.19,11.19,0,0,1,.28,1.11q.12.61.21,1.17c.07.37.12.66.14.87h-.53c.17-.63.3-1.14.39-1.52s.18-.7.24-.95.14-.49.22-.7l2.36-6h2.18l2.3,6c.14.36.27.71.37,1s.18.67.25,1,.14.65.21,1l-.47.12c0-.31.09-.57.11-.78s.06-.38.08-.53.06-.31.08-.46.07-.34.12-.56.13-.49.24-.84l2.44-8.16h2.67l-4.34,13.87H54l-3.55-8.44.26.06-3.37,8.38Z"/><path class="cls-2" d="M61.68,297.53V283.66h9.06V286H64.22v9.2h6.6v2.34Zm1.19-5.95v-2.29h6.86v2.29Z"/><path class="cls-2" d="M76.9,297.53l5.41-13.87h2.4l5.37,13.87H87.43l-3-7.93c-.05-.14-.13-.39-.24-.73s-.24-.72-.37-1.13-.26-.79-.37-1.13-.19-.6-.23-.77l.5,0c-.08.26-.17.56-.28.9s-.22.68-.33,1-.24.7-.36,1l-.32.89-3,7.85Zm2.46-3.19.87-2.22h6.32l1,2.22Z"/><path class="cls-2" d="M91.57,297.53V283.66h6a4.48,4.48,0,0,1,2.26.58,4.39,4.39,0,0,1,1.64,1.59,4.25,4.25,0,0,1,.6,2.25,4.13,4.13,0,0,1-.6,2.18,4.49,4.49,0,0,1-1.63,1.58,4.38,4.38,0,0,1-2.27.6H94.09v5.09Zm2.52-7.35h3.54a1.9,1.9,0,0,0,1-.27,1.82,1.82,0,0,0,.67-.73,2.24,2.24,0,0,0,.24-1,2,2,0,0,0-.3-1.13,2.18,2.18,0,0,0-.83-.76,2.71,2.71,0,0,0-1.23-.27H94.09Zm5.55,7.35-3.53-6.26,2.63-.5,3.93,6.78Z"/><path class="cls-2" d="M104.69,297.53V283.66h9.06V286h-6.52v9.2h6.6v2.34Zm1.19-5.95v-2.29h6.86v2.29Z"/><path class="cls-2" d="M121.44,297.53V283.66h5.91a6.06,6.06,0,0,1,2.31.39,3,3,0,0,1,1.41,1.18,3.56,3.56,0,0,1,.48,1.89,3.09,3.09,0,0,1-.61,1.95,3.06,3.06,0,0,1-1.71,1.09v-.4a4.22,4.22,0,0,1,1.6.7,3.46,3.46,0,0,1,1.07,1.25,3.61,3.61,0,0,1,.38,1.7,4.49,4.49,0,0,1-.33,1.78,3.15,3.15,0,0,1-.95,1.29,4.35,4.35,0,0,1-1.48.78,6.59,6.59,0,0,1-2,.27Zm2.5-8.18h3.19a2.25,2.25,0,0,0,1-.22,1.7,1.7,0,0,0,.67-.6,1.58,1.58,0,0,0,.24-.87,1.52,1.52,0,0,0-.54-1.25,2.5,2.5,0,0,0-1.58-.43h-3Zm0,5.86h3.49a2.66,2.66,0,0,0,1.69-.48,1.7,1.7,0,0,0,.6-1.4,1.51,1.51,0,0,0-.29-.95,1.84,1.84,0,0,0-.84-.61,3.43,3.43,0,0,0-1.26-.21h-3.39Z"/><path class="cls-2" d="M134.36,297.53V283.66h9.06V286H136.9v9.2h6.6v2.34Zm1.19-5.95v-2.29h6.86v2.29Z"/><path class="cls-2" d="M149.7,297.53v-6.92l.14,1-5.61-7.92h3l4.26,6.12-.89-.06,3.84-6.06h2.89L152,291.8l.3-1.35v7.08Z"/><path class="cls-2" d="M163.88,297.73a7,7,0,0,1-2.77-.54,6.64,6.64,0,0,1-2.2-1.49,6.81,6.81,0,0,1-1.46-2.27,8.25,8.25,0,0,1,0-5.71,6.73,6.73,0,0,1,3.66-3.77,7.45,7.45,0,0,1,5.52,0,6.5,6.5,0,0,1,2.2,1.51,7.1,7.1,0,0,1,1.45,2.28,8.16,8.16,0,0,1,0,5.68,7.16,7.16,0,0,1-1.45,2.27,6.33,6.33,0,0,1-2.2,1.5A6.92,6.92,0,0,1,163.88,297.73Zm0-2.46a4.09,4.09,0,0,0,1.73-.35,4,4,0,0,0,1.36-1,4.75,4.75,0,0,0,.9-1.49,5.23,5.23,0,0,0,.33-1.88,5.18,5.18,0,0,0-.33-1.87,4.91,4.91,0,0,0-.9-1.5,4.11,4.11,0,0,0-1.36-1,4.6,4.6,0,0,0-3.47,0,4.15,4.15,0,0,0-1.37,1,4.5,4.5,0,0,0-.9,1.49,5.41,5.41,0,0,0-.32,1.88,5.13,5.13,0,0,0,.56,2.43,4.26,4.26,0,0,0,1.53,1.67A4.15,4.15,0,0,0,163.88,295.27Z"/><path class="cls-2" d="M172.85,297.53V283.66h2.3l8.09,10.86-.44.1c-.09-.61-.16-1.26-.22-1.95s-.11-1.43-.13-2.23,0-1.69,0-2.64v-4.14H185v13.87h-2.34l-8.09-10.68.48-.14q.13,1.41.21,2.31t.12,1.47c0,.39,0,.7,0,1s0,.49,0,.71v5.37Z"/><path class="cls-2" d="M188,297.53V283.66h5.57a7.16,7.16,0,0,1,2.72.49,5.77,5.77,0,0,1,2.09,1.43,6.25,6.25,0,0,1,1.35,2.2,7.85,7.85,0,0,1,.48,2.81,8,8,0,0,1-.48,2.83,6.38,6.38,0,0,1-1.34,2.2,5.79,5.79,0,0,1-2.09,1.42,7.25,7.25,0,0,1-2.73.49Zm2.55-2-.17-.38h3.09a4.54,4.54,0,0,0,1.74-.31,3.59,3.59,0,0,0,1.3-.91,4.08,4.08,0,0,0,.81-1.43,6,6,0,0,0,.29-1.91,5.86,5.86,0,0,0-.29-1.89,4.07,4.07,0,0,0-.82-1.44,3.64,3.64,0,0,0-1.3-.91,4.48,4.48,0,0,0-1.73-.32h-3.15l.23-.33Z"/><path class="cls-2" d="M210.1,297.53V286h-4v-2.37h10.59V286h-4.06v11.5Z"/><path class="cls-2" d="M218.54,297.53V283.66h9.06V286h-6.52v9.2h6.6v2.34Zm1.19-5.95v-2.29h6.86v2.29Z"/><path class="cls-2" d="M236.06,297.73a7,7,0,0,1-2.73-.52,6.19,6.19,0,0,1-2.16-1.47,6.82,6.82,0,0,1-1.42-2.28,7.94,7.94,0,0,1-.5-2.89,7.15,7.15,0,0,1,.53-2.79,7.06,7.06,0,0,1,1.49-2.26,6.68,6.68,0,0,1,2.22-1.51,7,7,0,0,1,2.73-.53,6.74,6.74,0,0,1,2,.29,7.11,7.11,0,0,1,1.76.83,5.05,5.05,0,0,1,1.32,1.24l-1.65,1.76a5.91,5.91,0,0,0-1.61-1.21,4,4,0,0,0-1.78-.41,4.42,4.42,0,0,0-1.71.33,4.09,4.09,0,0,0-1.39.95,4.48,4.48,0,0,0-.92,1.46,4.9,4.9,0,0,0-.34,1.87,5.37,5.37,0,0,0,.33,1.92,4.29,4.29,0,0,0,.93,1.47,3.85,3.85,0,0,0,1.45.93,5.06,5.06,0,0,0,1.87.32,4.43,4.43,0,0,0,1.25-.17,4.36,4.36,0,0,0,1.15-.5,4.82,4.82,0,0,0,.95-.78l1.27,2.05a4.88,4.88,0,0,1-1.27,1,7.4,7.4,0,0,1-1.76.68A7.77,7.77,0,0,1,236.06,297.73Z"/><path class="cls-2" d="M243,297.53V283.66h2.56v13.87Zm1.07-5.73v-2.38h9.08v2.38Zm7.85,5.73V283.66h2.56v13.87Z"/><path class="cls-3" d="M107.77,94.65c1.56,3.23,1.81,6.76,5.07,7.88,3.66,1.27,5.07-1.65,7-4.12l3.35-11.14L108.87,79a14.8,14.8,0,0,0-3.8-1.54Z"/><path class="cls-3" d="M135.17,117.7a42.48,42.48,0,0,0,6.15.94l38.76,1.49L140.53,97.29c-3.08,2.76-6.44,5.21-9.16,8.38C126.3,111.59,127.58,115.94,135.17,117.7Z"/><path class="cls-3" d="M134,100.62c1.92-1.18,3.68-2.61,5.52-3.9l-15.54-9-2.71,9.35a18.7,18.7,0,0,1,0,1.89c-.54,5.49,1.6,7.15,6.74,5A43.19,43.19,0,0,0,134,100.62Z"/><path class="cls-3" d="M119,141.81a33.13,33.13,0,0,0,.09,6.9c.75,5.67,1.57,11.32,2.41,17,0,1.14.29,2.31.32,3.46l4.58,33.64,42.53-24.56-33.46-35.79c-2.14-1.86-4.29-3.7-6.57-5.36C123.48,133.13,119.52,135.09,119,141.81Z"/><path class="cls-3" d="M104.32,147.32c.17-2.35,1.2-5.45-1.42-6.69s-4.35,1.49-6,3.19c-1.25,1.29-2.43,2.64-3.61,4L87,158.71v41.53a15.12,15.12,0,0,0,.44,3.61l13.94-42.73C102.56,156.57,104,152.06,104.32,147.32Z"/><path class="cls-3" d="M119.94,165c-.1-.53-.19-1.06-.28-1.6-.93-5.69-1.86-11.4-4-16.75-1.73-4.22-4.79-4.48-7.33-.71a29.72,29.72,0,0,0-2.34,4.89l-4.64,13.78c-.48,1.57-1,3.14-1.54,4.69v-.14L87.7,204.92a14.64,14.64,0,0,0,21.17,8l16.93-9.77Z"/><path class="cls-3" d="M202.89,133.3l-21.13-12.2-31.22-.49-15.62.2c-7.57.16-9.72,5-5.88,11.58a51,51,0,0,0,5.11,7l35.32,38.56,33.42-19.3A14.61,14.61,0,0,0,202.89,133.3Z"/><path class="cls-3" d="M94.37,125c5.28-3.5,5.56-8.12.88-12.4-2.63-2.41-5.92-4-8.21-6.82h0l0,0A109.61,109.61,0,0,0,97.36,110c5.74,1.71,9.29-.88,9.73-6.85.13-1.7.12-3.41.09-5.26l-3-20.61A14.63,14.63,0,0,0,87,91.67v37.79l0,0A84.56,84.56,0,0,0,94.37,125Z"/><path class="cls-3" d="M95.46,141.83A26.21,26.21,0,0,0,98,135c.39-1.92.27-3.74-1.53-5-1.11-.78-3.18-.89-5.34-.54-1.43-.05-2.84-.09-4.21,0V156.8Z"/></g></g></svg>