<svg xmlns="http://www.w3.org/2000/svg" viewBox="0 0 300.72 221.19"><defs><style>.cls-1{fill:#fff;}.cls-2{fill:none;stroke:#fff;stroke-miterlimit:10;}</style></defs><g id="Layer_2" data-name="Layer 2"><g id="Layer_1-2" data-name="Layer 1"><path class="cls-1" d="M0,194.88V164H3.49v30.89Zm1.59-13.77v-3.4H16.94v3.4Zm0-13.77V164H19.11v3.35Z"/><path class="cls-1" d="M30.84,195.32a8.63,8.63,0,0,1-4.41-1.08,7.14,7.14,0,0,1-2.84-3.13,11.47,11.47,0,0,1-1-5.06V171.71H26v13.5a7.78,7.78,0,0,0,1.61,5.32,5.7,5.7,0,0,0,4.52,1.83,6.56,6.56,0,0,0,2.58-.5,7,7,0,0,0,2.05-1.35,6.46,6.46,0,0,0,1.39-1.88,4.7,4.7,0,0,0,.51-2.09V171.71H42v23.17H38.65l0-5,.66-.36a8.07,8.07,0,0,1-1.78,2.94,9.34,9.34,0,0,1-3,2.12A8.87,8.87,0,0,1,30.84,195.32Z"/><path class="cls-1" d="M44.66,175v-3.27H59.13V175ZM50,194.88V165.8h3.35v29.08Z"/><path class="cls-1" d="M69.85,195.32a8.61,8.61,0,0,1-4.41-1.08,7.17,7.17,0,0,1-2.85-3.13,11.61,11.61,0,0,1-1-5.06V171.71H65v13.5a7.83,7.83,0,0,0,1.61,5.32,5.73,5.73,0,0,0,4.53,1.83,6.56,6.56,0,0,0,2.58-.5,7,7,0,0,0,2-1.35,6.46,6.46,0,0,0,1.39-1.88,4.7,4.7,0,0,0,.51-2.09V171.71H81v23.17H77.66l0-5,.66-.36a8,8,0,0,1-1.79,2.94,9.3,9.3,0,0,1-2.95,2.12A8.9,8.9,0,0,1,69.85,195.32Z"/><path class="cls-1" d="M85.69,194.88V171.71h3.36l0,6.71-.4-1.15a8.41,8.41,0,0,1,1.53-3,8.14,8.14,0,0,1,2.62-2.19,7.2,7.2,0,0,1,3.4-.81,7.91,7.91,0,0,1,1.41.11,5.64,5.64,0,0,1,1.1.28l-.88,3.66a13.07,13.07,0,0,0-1.26-.37,5.27,5.27,0,0,0-1.21-.15,5.86,5.86,0,0,0-2.54.55,6.4,6.4,0,0,0-2,1.47,6.94,6.94,0,0,0-1.31,2.1,6.66,6.66,0,0,0-.46,2.41v13.5Z"/><path class="cls-1" d="M110.1,195.32a12.36,12.36,0,0,1-6.18-1.52,11,11,0,0,1-4.22-4.22,12.28,12.28,0,0,1-1.52-6.13,13.67,13.67,0,0,1,.86-4.92,11.8,11.8,0,0,1,2.38-3.84,10.63,10.63,0,0,1,3.64-2.49,12,12,0,0,1,4.64-.88,10.65,10.65,0,0,1,4.12.79,9.85,9.85,0,0,1,3.34,2.27,10.16,10.16,0,0,1,2.16,3.49,11.36,11.36,0,0,1,.66,4.43l0,1.68H100.61l-.71-2.74h17.26l-.62.75,0-1.1a6.45,6.45,0,0,0-1.06-3.35,7,7,0,0,0-2.49-2.3,6.81,6.81,0,0,0-3.33-.84,8.58,8.58,0,0,0-4.41,1.08,7,7,0,0,0-2.81,3.05,11.2,11.2,0,0,0-1,4.7,10,10,0,0,0,1.15,4.74,7.83,7.83,0,0,0,3.11,3.14,9.36,9.36,0,0,0,4.65,1.12,9.47,9.47,0,0,0,3.53-.64,11.12,11.12,0,0,0,3.31-2.14l1.68,2.38a10.55,10.55,0,0,1-2.49,1.83,14.46,14.46,0,0,1-3.07,1.22A12.66,12.66,0,0,1,110.1,195.32Z"/><path class="cls-1" d="M148.35,195.32a16.28,16.28,0,0,1-6.24-1.17,14.46,14.46,0,0,1-4.94-3.31,14.69,14.69,0,0,1-3.22-5.05,17.63,17.63,0,0,1-1.13-6.4A16.46,16.46,0,0,1,134,173.1a15.33,15.33,0,0,1,8.41-8.4,16.2,16.2,0,0,1,6.29-1.2,16,16,0,0,1,4.34.6,14,14,0,0,1,3.93,1.77,13.85,13.85,0,0,1,3.07,2.71l-4.15,4.63a11.39,11.39,0,0,0-3.35-2.56,8.9,8.9,0,0,0-3.89-.88,9.31,9.31,0,0,0-3.55.68,8.59,8.59,0,0,0-2.89,2,9.36,9.36,0,0,0-1.94,3,10.53,10.53,0,0,0-.71,3.93,11,11,0,0,0,.69,4,8.43,8.43,0,0,0,2,3.05,8.74,8.74,0,0,0,3.07,1.94,10.85,10.85,0,0,0,4,.68,9.4,9.4,0,0,0,2.71-.39,10.83,10.83,0,0,0,2.45-1.11,10.15,10.15,0,0,0,2-1.63l3.22,5.16a9.72,9.72,0,0,1-2.82,2.17,17.92,17.92,0,0,1-4,1.52A18.22,18.22,0,0,1,148.35,195.32Z"/><path class="cls-1" d="M173.55,195.32a12.67,12.67,0,0,1-6.33-1.57,11.63,11.63,0,0,1-4.42-4.3,12.06,12.06,0,0,1-1.61-6.22,12.24,12.24,0,0,1,1.61-6.31,11.63,11.63,0,0,1,4.42-4.3,13.59,13.59,0,0,1,12.68,0,11.55,11.55,0,0,1,4.39,4.3,12.14,12.14,0,0,1,1.61,6.31,12,12,0,0,1-1.61,6.22,11.55,11.55,0,0,1-4.39,4.3A12.64,12.64,0,0,1,173.55,195.32Zm0-5.43a5.55,5.55,0,0,0,3.11-.88,6.19,6.19,0,0,0,2.12-2.38,7,7,0,0,0,.73-3.4,7.34,7.34,0,0,0-.73-3.51,6,6,0,0,0-2.12-2.38,5.62,5.62,0,0,0-3.11-.86,5.55,5.55,0,0,0-3.09.88,6.29,6.29,0,0,0-2.16,2.38,7,7,0,0,0-.75,3.49,6.81,6.81,0,0,0,.75,3.4,6.29,6.29,0,0,0,2.16,2.38A5.55,5.55,0,0,0,173.55,189.89Z"/><path class="cls-1" d="M189,194.88V171.54h6l.18,4.76-1.24.53a6.72,6.72,0,0,1,1.72-2.89,10,10,0,0,1,3-2.1,9,9,0,0,1,3.66-.79,8.54,8.54,0,0,1,4.44,1.06,6.58,6.58,0,0,1,2.69,3.2,13.78,13.78,0,0,1,.9,5.32v14.25h-6.26V181.07a7,7,0,0,0-.44-2.65,3.06,3.06,0,0,0-1.33-1.55,4.38,4.38,0,0,0-2.25-.44,5.53,5.53,0,0,0-1.94.33,4.93,4.93,0,0,0-1.57,1,4.27,4.27,0,0,0-1,1.42,4.16,4.16,0,0,0-.36,1.76v14H189Z"/><path class="cls-1" d="M214.9,194.88V171.54h6l.18,4.76-1.24.53a6.72,6.72,0,0,1,1.72-2.89,10,10,0,0,1,3.05-2.1,8.93,8.93,0,0,1,3.66-.79,8.56,8.56,0,0,1,4.44,1.06,6.58,6.58,0,0,1,2.69,3.2,13.78,13.78,0,0,1,.9,5.32v14.25h-6.26V181.07a6.82,6.82,0,0,0-.45-2.65,3,3,0,0,0-1.32-1.55,4.38,4.38,0,0,0-2.25-.44,5.49,5.49,0,0,0-1.94.33,4.93,4.93,0,0,0-1.57,1,4.11,4.11,0,0,0-1.39,3.18v14H214.9Z"/><path class="cls-1" d="M251.83,195.32a13.6,13.6,0,0,1-6.64-1.55,11,11,0,0,1-4.41-4.23,11.93,11.93,0,0,1-1.57-6.13,13.66,13.66,0,0,1,.88-5,11.48,11.48,0,0,1,2.47-3.91,11.24,11.24,0,0,1,3.78-2.54,12.41,12.41,0,0,1,4.78-.9,11.05,11.05,0,0,1,4.39.86,10.26,10.26,0,0,1,3.49,2.43,10.75,10.75,0,0,1,2.27,3.68,12.46,12.46,0,0,1,.75,4.64l0,1.94H243.23l-1-3.89h14.61l-.75.8v-.93a4,4,0,0,0-.78-2.16,4.91,4.91,0,0,0-1.74-1.48,5,5,0,0,0-2.34-.55,6.67,6.67,0,0,0-3.33.77,4.94,4.94,0,0,0-2,2.21,8.15,8.15,0,0,0-.68,3.55,7.27,7.27,0,0,0,.88,3.64,5.86,5.86,0,0,0,2.54,2.41,8.63,8.63,0,0,0,3.9.83,8,8,0,0,0,2.83-.48,10.81,10.81,0,0,0,2.78-1.68l2.95,4.19a13,13,0,0,1-2.78,1.9,14.08,14.08,0,0,1-3.18,1.19A13.41,13.41,0,0,1,251.83,195.32Z"/><path class="cls-1" d="M275.22,195.32a11.31,11.31,0,0,1-10.17-5.94,12.44,12.44,0,0,1-1.53-6.15,12.69,12.69,0,0,1,1.53-6.25,11.33,11.33,0,0,1,10.17-5.93,13.69,13.69,0,0,1,5.71,1.17,9.86,9.86,0,0,1,4,3.2l-3.4,4.15A7.78,7.78,0,0,0,280,178a7.58,7.58,0,0,0-2-1.1,6.32,6.32,0,0,0-2.23-.4,6.08,6.08,0,0,0-3.22.86,6,6,0,0,0-2.21,2.39,7.25,7.25,0,0,0-.79,3.42,6.75,6.75,0,0,0,.84,3.35,6.51,6.51,0,0,0,2.25,2.38,5.76,5.76,0,0,0,3.13.88,7.15,7.15,0,0,0,2.18-.33,6.26,6.26,0,0,0,1.92-1,12.07,12.07,0,0,0,1.68-1.54l3.4,4.14a10.21,10.21,0,0,1-4.13,3.07A13.84,13.84,0,0,1,275.22,195.32Z"/><path class="cls-1" d="M285.28,177.14v-5.6h15.44v5.6Zm4.37,17.74V165.62h6.26v29.26Z"/><path class="cls-1" d="M45.47,221l-4.34-13.88h2.65l2.5,8.23a11.19,11.19,0,0,1,.28,1.11q.12.61.21,1.17c.07.37.12.66.14.87h-.53c.17-.64.3-1.14.39-1.53s.18-.7.24-.95.14-.48.22-.69l2.36-6h2.18l2.3,6c.14.36.27.7.37,1s.18.66.25,1,.14.65.21,1l-.47.12c0-.32.09-.58.11-.78s.06-.39.08-.54.06-.3.08-.45.07-.34.12-.56.13-.5.24-.84l2.44-8.17h2.67L55.83,221H54l-3.55-8.45.26.06L47.31,221Z"/><path class="cls-1" d="M61.68,221V207.12h9.06v2.34H64.22v9.2h6.6V221Zm1.19-5.95v-2.3h6.86v2.3Z"/><path class="cls-1" d="M76.9,221l5.41-13.88h2.4L90.08,221H87.43l-3-7.93c-.05-.15-.13-.39-.24-.74s-.24-.72-.37-1.13l-.37-1.12c-.11-.35-.19-.61-.23-.78l.5,0c-.08.27-.17.57-.28.9s-.22.69-.33,1-.24.7-.36,1-.23.62-.32.89l-3,7.85Zm2.46-3.19.87-2.22h6.32l1,2.22Z"/><path class="cls-1" d="M91.57,221V207.12h6a4.56,4.56,0,0,1,3.9,2.17,4.3,4.3,0,0,1,.6,2.25,4.13,4.13,0,0,1-.6,2.18,4.6,4.6,0,0,1-1.63,1.59,4.47,4.47,0,0,1-2.27.59H94.09V221Zm2.52-7.36h3.54a2,2,0,0,0,1-.26,1.84,1.84,0,0,0,.67-.74,2.24,2.24,0,0,0,.24-1,2,2,0,0,0-1.13-1.88,2.59,2.59,0,0,0-1.23-.28H94.09ZM99.64,221l-3.53-6.27,2.63-.49,3.93,6.78Z"/><path class="cls-1" d="M104.69,221V207.12h9.06v2.34h-6.52v9.2h6.6V221Zm1.19-5.95v-2.3h6.86v2.3Z"/><path class="cls-1" d="M121.44,221V207.12h5.91a5.87,5.87,0,0,1,2.31.4,2.9,2.9,0,0,1,1.41,1.18,3.54,3.54,0,0,1,.48,1.89,3.06,3.06,0,0,1-.61,1.94,3,3,0,0,1-1.71,1.09v-.39a4.07,4.07,0,0,1,1.6.7,3.38,3.38,0,0,1,1.07,1.25,3.57,3.57,0,0,1,.38,1.69,4.54,4.54,0,0,1-.33,1.79A3.29,3.29,0,0,1,131,220a4.35,4.35,0,0,1-1.48.78,6.59,6.59,0,0,1-2,.27Zm2.5-8.19h3.19a2.12,2.12,0,0,0,1-.22,1.61,1.61,0,0,0,.67-.59,1.58,1.58,0,0,0,.24-.87,1.5,1.5,0,0,0-.54-1.25,2.5,2.5,0,0,0-1.58-.44h-3Zm0,5.87h3.49a2.6,2.6,0,0,0,1.69-.49,1.69,1.69,0,0,0,.6-1.4,1.53,1.53,0,0,0-.29-.95,1.9,1.9,0,0,0-.84-.6,3.43,3.43,0,0,0-1.26-.21h-3.39Z"/><path class="cls-1" d="M134.36,221V207.12h9.06v2.34H136.9v9.2h6.6V221Zm1.19-5.95v-2.3h6.86v2.3Z"/><path class="cls-1" d="M149.7,221v-6.92l.14,1-5.61-7.93h3l4.26,6.13-.89-.06,3.84-6.07h2.89L152,215.27l.3-1.35V221Z"/><path class="cls-1" d="M163.88,221.19a6.94,6.94,0,0,1-2.77-.53,6.82,6.82,0,0,1-2.2-1.5,6.71,6.71,0,0,1-1.46-2.27,8.22,8.22,0,0,1,0-5.7,6.73,6.73,0,0,1,3.66-3.77,7.32,7.32,0,0,1,5.52,0,6.5,6.5,0,0,1,2.2,1.51,7,7,0,0,1,1.45,2.27,7.79,7.79,0,0,1,.51,2.84,7.67,7.67,0,0,1-.51,2.84,7,7,0,0,1-1.45,2.27,6.5,6.5,0,0,1-2.2,1.51A6.91,6.91,0,0,1,163.88,221.19Zm0-2.45a4.24,4.24,0,0,0,1.73-.35,4.11,4.11,0,0,0,1.36-1,4.69,4.69,0,0,0,.9-1.5,5.46,5.46,0,0,0,0-3.74,4.69,4.69,0,0,0-.9-1.5,4.11,4.11,0,0,0-1.36-1,4.48,4.48,0,0,0-3.47,0,4.15,4.15,0,0,0-1.37,1,4.4,4.4,0,0,0-.9,1.49,5.37,5.37,0,0,0-.32,1.88,5.18,5.18,0,0,0,.56,2.43,4.23,4.23,0,0,0,1.53,1.66A4.07,4.07,0,0,0,163.88,218.74Z"/><path class="cls-1" d="M172.85,221V207.12h2.3L183.24,218l-.44.1c-.09-.6-.16-1.25-.22-1.94s-.11-1.43-.13-2.24,0-1.68,0-2.64v-4.14H185V221h-2.34l-8.09-10.69.48-.14q.13,1.41.21,2.31c.06.6.1,1.1.12,1.48s0,.7,0,.95,0,.49,0,.72V221Z"/><path class="cls-1" d="M188,221V207.12h5.57a7.16,7.16,0,0,1,2.72.5,5.75,5.75,0,0,1,2.09,1.42,6.44,6.44,0,0,1,1.35,2.2,8.52,8.52,0,0,1,0,5.64,6.2,6.2,0,0,1-1.34,2.2,5.67,5.67,0,0,1-2.09,1.42,7.25,7.25,0,0,1-2.73.5Zm2.55-2-.17-.37h3.09a4.54,4.54,0,0,0,1.74-.32,3.45,3.45,0,0,0,1.3-.9,4,4,0,0,0,.81-1.44,6,6,0,0,0,.29-1.9,5.86,5.86,0,0,0-.29-1.89,4.07,4.07,0,0,0-.82-1.44,3.52,3.52,0,0,0-1.3-.91,4.48,4.48,0,0,0-1.73-.32h-3.15l.23-.34Z"/><path class="cls-1" d="M210.1,221V209.5h-4v-2.38h10.59v2.38h-4.06V221Z"/><path class="cls-1" d="M218.54,221V207.12h9.06v2.34h-6.52v9.2h6.6V221Zm1.19-5.95v-2.3h6.86v2.3Z"/><path class="cls-1" d="M236.06,221.19a7.13,7.13,0,0,1-2.73-.51,6.22,6.22,0,0,1-2.16-1.48,6.82,6.82,0,0,1-1.42-2.28,7.92,7.92,0,0,1-.5-2.88,7.07,7.07,0,0,1,2-5.06,6.89,6.89,0,0,1,4.95-2,6.42,6.42,0,0,1,2,.3,7.08,7.08,0,0,1,1.76.82,5.23,5.23,0,0,1,1.32,1.24l-1.65,1.77a5.72,5.72,0,0,0-1.61-1.21,4,4,0,0,0-1.78-.42,4.25,4.25,0,0,0-1.71.34,4,4,0,0,0-1.39.95,4.37,4.37,0,0,0-.92,1.46,4.87,4.87,0,0,0-.34,1.87,5.28,5.28,0,0,0,.33,1.91,4.24,4.24,0,0,0,.93,1.48,3.85,3.85,0,0,0,1.45.93,5.28,5.28,0,0,0,1.87.32,4.83,4.83,0,0,0,1.25-.17,4.08,4.08,0,0,0,1.15-.51,4.78,4.78,0,0,0,.95-.77l1.27,2a4.67,4.67,0,0,1-1.27,1A7.87,7.87,0,0,1,238,221,8.23,8.23,0,0,1,236.06,221.19Z"/><path class="cls-1" d="M243,221V207.12h2.56V221Zm1.07-5.73v-2.38h9.08v2.38ZM252,221V207.12h2.56V221Z"/><path class="cls-2" d="M107.77,18.11c1.56,3.24,1.81,6.76,5.07,7.89,3.66,1.27,5.07-1.65,7-4.12l3.35-11.15L108.87,2.48a14.84,14.84,0,0,0-3.8-1.55Z"/><path class="cls-2" d="M135.17,41.17a42.46,42.46,0,0,0,6.15.93l38.76,1.49L140.53,20.75c-3.08,2.77-6.44,5.22-9.16,8.39C126.3,35.06,127.58,39.4,135.17,41.17Z"/><path class="cls-2" d="M134,24.09c1.92-1.19,3.68-2.61,5.52-3.9l-15.54-9-2.71,9.36a18.74,18.74,0,0,1,0,1.89c-.54,5.48,1.6,7.15,6.74,5A44.24,44.24,0,0,0,134,24.09Z"/><path class="cls-2" d="M119,65.27a33.24,33.24,0,0,0,.09,6.91c.75,5.66,1.57,11.31,2.41,17,0,1.15.29,2.32.32,3.47l4.58,33.63,42.53-24.55-33.46-35.8c-2.14-1.86-4.29-3.7-6.57-5.35C123.48,56.6,119.52,58.55,119,65.27Z"/><path class="cls-2" d="M104.32,70.79c.17-2.35,1.2-5.45-1.42-6.7s-4.35,1.5-6,3.2c-1.25,1.28-2.43,2.63-3.61,4L87,82.18v41.53a15.19,15.19,0,0,0,.44,3.61l13.94-42.73C102.56,80,104,75.52,104.32,70.79Z"/><path class="cls-2" d="M119.94,88.47c-.1-.54-.19-1.07-.28-1.6-.93-5.7-1.86-11.4-4-16.76-1.73-4.21-4.79-4.48-7.33-.7a29.34,29.34,0,0,0-2.34,4.89L101.3,88.08c-.48,1.57-1,3.14-1.54,4.68v-.13L87.7,128.39a14.63,14.63,0,0,0,21.17,8l16.93-9.77Z"/><path class="cls-2" d="M202.89,56.76l-21.13-12.2-31.22-.49-15.62.21c-7.57.15-9.72,5-5.88,11.58a51.63,51.63,0,0,0,5.11,7l35.32,38.55,33.42-19.29A14.62,14.62,0,0,0,202.89,56.76Z"/><path class="cls-2" d="M94.37,48.5c5.28-3.51,5.56-8.13.88-12.41-2.63-2.4-5.92-4-8.21-6.82h0l0,0a104.5,104.5,0,0,0,10.33,4.21c5.74,1.71,9.29-.87,9.73-6.85.13-1.69.12-3.4.09-5.25l-3-20.62A14.64,14.64,0,0,0,87,15.14V52.93l0,0C89.52,51.57,92,50.08,94.37,48.5Z"/><path class="cls-2" d="M95.46,65.3A26.34,26.34,0,0,0,98,58.5c.39-1.93.27-3.74-1.53-5-1.11-.79-3.18-.89-5.34-.54-1.43-.05-2.84-.09-4.21,0V80.27Z"/></g></g></svg>